# Created with Anim8or 0.95
# Object "xpFurnace":
# ComRec:
g main
# No. points 95:
v -3.43758 11.317 5.28362
v -3.43758 11.317 6.16992
v -3.0669 12.856 5.9596
v -3.0669 12.856 6.9596
v 3.36026 11.317 5.28362
v 3.36026 11.317 6.16992
v 2.9798 12.857 5.9612
v 2.9798 12.857 6.9612
v 2.981 1.6395 5.961
v 2.9808 1.6395 6.9596
v 6.0069 1.6395 5.961
v 6.0059 1.6395 7.0002
v 6.0128 12.856 5.9613
v 6.0125 12.856 7.0025
v -5.9864 1.6395 5.961
v -5.985 1.6395 7.0002
v -5.9847 12.857 5.9595
v -5.9848 12.857 7.0034
v -3.0685 1.6395 5.961
v -3.0667 1.6395 6.9595
v -7 1.6395 -6.9998
v -7 1.6395 7.0002
v -7 12.856 -6.9998
v -7 12.856 7.0002
v -5.9848 1.6395 -6.9968
v -5.9848 12.857 -6.9966
v 6.0061 1.6393 -6.9977
v 6.0125 12.856 -6.9975
v 7 1.6395 -6.9998
v 7 1.6395 7.0002
v 7 12.856 -6.9997
v 7 12.856 7.0003
v -7 1.6395 -6.0002
v -6.9999 12.857 -6
v 7 1.6395 -6.0002
v 7.0002 12.856 -5.9999
v -7 14.5 -7
v -7 14.5 7
v 7 14.5 -7
v 7 14.5 7
v -7 -0.41440 -6.9998
v -7 -0.41440 7.0002
v 7 -0.41440 -6.9998
v 7 -0.41440 7.0002
v -3.43768 11.317 5.28242
v -5.463 11.307 5.2823
v -5.4629 11.307 6.207
v -5.4628 11.307 -6.2012
v -6.3895 11.304 -6.204
v -6.3895 11.304 6.2045
v -6.3894 11.304 -5.3178
v 5.4876 11.321 5.2837
v 5.4872 11.321 6.2062
v 6.3895 11.306 -6.204
v 5.4872 11.321 -6.202
v 6.3895 11.306 6.2046
v 6.3896 11.306 -5.3178
v 3.35816 11.306 5.28362
v 3.35816 11.306 6.16972
v 6.3895 11.306 -6.204
v 6.3895 11.306 6.2046
v -3.49558 6.07388 6.16902
v -5.52 6.0739 5.2837
v -3.46738 6.07388 5.28372
v -5.519 6.0739 6.2057
v -6.455 6.0739 -6.204
v -5.5188 6.0739 -6.2013
v -6.455 6.0739 6.2051
v -6.455 6.0739 -5.3179
v 6.455 6.0739 -5.3179
v 3.38656 6.07388 6.16942
v 3.38676 6.07388 5.28402
v 5.5405 6.0739 5.2841
v 5.5396 6.0739 6.2055
v 5.5398 6.0739 -6.2021
v 6.455 6.0739 -6.204
v 6.455 6.0739 6.2051
v -3.49108 11.285 5.28252
v -3.45668 11.291 6.20402
v -5.4644 11.284 5.2824
v -5.4643 11.284 6.207
v -5.4643 11.284 -6.2011
v -6.3912 11.281 -6.204
v -6.3912 11.281 6.2045
v -6.3911 11.281 -5.3178
v 6.3909 11.324 -5.3178
v 3.35876 11.312 5.28362
v 3.35876 11.312 6.16972
v 5.4887 11.321 5.2837
v 5.4884 11.321 6.2062
v 6.3908 11.324 -6.2039
v 5.4884 11.321 -6.202
v 6.3908 11.324 6.2046
v -3.49058 11.293 5.28252
v -3.45758 11.293 6.20332

# No. normals 479:
vn 0.00018 0.40276 -0.91531
vn -0.00016 -0.45649 0.88973
vn -0.97220 0.23416 0
vn 0.97081 0.23984 0
vn -0.00017 1 0
vn 0 -1 0
vn 0.00033 1 0
vn 0 -1 0
vn 0.00034 1 0
vn 0 -1 0
vn -0.00099 1 0
vn 0 -1 0
vn 0 1 0
vn 0 -1 0
vn 0.00007 1 0
vn 0 -1 0
vn 0 -0.00018 -1
vn 0 0.00012 1
vn -1 0 0
vn 1 0 0
vn 0 1 0
vn 0 -1 0
vn 0 0 -1
vn 0 0 1
vn -1 0 0
vn 1 0 0
vn 0 1 0
vn 0 -1 0
vn 0.00017 0.40271 -0.91533
vn -0.94777 -0.31896 -0.00009
vn 0.00325 -0.45569 -0.89013
vn -0.00235 -0.45764 0.88914
vn -0.93059 -0.36606 0
vn 0.94770 0.31916 0
vn -0.93074 -0.36568 0.00046
vn 0.94611 -0.32383 0.00027
vn -0.00198 -0.45959 -0.88813
vn 0.00198 -0.46102 0.88739
vn -0.94613 0.32378 0
vn 0.93043 -0.36647 0
vn 0.93038 -0.36659 -0.00019
vn -0.97151 -0.23699 0
vn 0.00016 0.40036 -0.91636
vn -0.01226 -0.45687 0.88945
vn 1 0 0
vn 1 0 0
vn 1 0 0
vn 1 0 0
vn 0 -0.15098 -0.98854
vn 0.01373 0.17676 0.98416
vn -0.99449 0.10480 0.00134
vn 0.99600 0.08932 -0.00180
vn 0.00291 0.17628 -0.98434
vn 0 0.17636 0.98433
vn -0.99253 0.12198 0
vn 0.99452 -0.10451 0.00001
vn -0.99253 0.12198 0
vn 0 -0.15208 0.98837
vn -0.99584 0.09109 -0.00020
vn 0 -0.15092 -0.98855
vn -0.01321 0.17659 0.98420
vn 0.99450 0.10475 0.00096
vn -0.00212 0.17637 -0.98432
vn 0 0.17640 0.98432
vn -0.99452 -0.10458 -0.00001
vn 0.99253 0.12198 0
vn 0.99253 0.12198 0
vn 0 0.17664 -0.98428
vn 0.97218 -0.23422 0
vn -0.999942 0.01067 0.00108
vn -0.99815 0.06076 0.00011
vn 0.00288 0.00001 -0.999996
vn 0.00304 -0.00455 -0.999985
vn -0.00064 -0.00024 1
vn -0.00270 0.00016 0.999996
vn -0.999925 0.01225 0
vn -0.99728 0.07371 0
vn 0.999945 -0.01046 0.00002
vn 0.99815 -0.06076 0.00001
vn -0.999925 0.01225 0
vn -0.99728 0.07371 0.00011
vn 0 -0.00002 1
vn 0.00002 0.40219 0.91556
vn -0.999986 -0.00531 -0.00023
vn 0.99504 -0.09951 0
vn 0.00004 -0.00008 -1
vn -0.00004 0 1
vn -0.01675 -0.00015 0.99986
vn 0.01714 -0.00171 -0.999852
vn 0.999951 0.00987 0.00098
vn 0 1 0
vn -0.00208 0 -0.999998
vn 0.00212 -0.00572 0.999981
vn 0.00044 -0.00013 1
vn -0.00177 0.00013 -0.999998
vn -0.999952 -0.00980 -0.00002
vn 0 -1 0
vn 0.999925 0.01223 0
vn -0.99740 0.07202 0
vn 0.999925 0.01223 0
vn -0.99740 0.07205 0.00011
vn 0 0.00002 -1
vn 1 0 0
vn 0.00008 -0.00436 -0.999991
vn 0.00001 -0.00023 -1
vn 0.01335 -0.43743 0.89915
vn 0.01812 -0.00670 0.999813
vn -0.99738 0.06233 0.03683
vn 0.999483 0.00445 0.03184
vn 0.00018 0.40276 -0.91531
vn 0 -1 0
vn -0.97220 0.23416 0
vn -0.00016 -0.45649 0.88973
vn 0 -1 0
vn -0.97220 0.23416 0
vn 0.00018 0.40276 -0.91531
vn 0.97218 -0.23422 0
vn 0.00017 0.40271 -0.91533
vn 0.00034 1 0
vn -0.00017 1 0
vn -0.97220 0.23416 0
vn -0.00016 -0.45649 0.88973
vn 0.01335 -0.43743 0.89915
vn 0.97218 -0.23422 0
vn 0.00034 1 0
vn -0.00017 1 0
vn -0.97220 0.23416 0
vn 0.00018 0.40276 -0.91531
vn 0 -1 0
vn 0.97081 0.23984 0
vn -0.00016 -0.45649 0.88973
vn 0 -1 0
vn 0.97081 0.23984 0
vn 0.00018 0.40276 -0.91531
vn 0.00016 0.40036 -0.91636
vn -0.97151 -0.23699 0
vn 0.00033 1 0
vn -0.00017 1 0
vn 0.97081 0.23984 0
vn -0.00016 -0.45649 0.88973
vn -0.01226 -0.45687 0.88945
vn -0.97151 -0.23699 0
vn 0.00033 1 0
vn -0.00017 1 0
vn 0.97081 0.23984 0
vn 0 -1 0
vn 0 -0.15092 -0.98855
vn -0.99584 0.09109 -0.00020
vn 0 -1 0
vn -0.01321 0.17659 0.98420
vn -0.99584 0.09109 -0.00020
vn 0 -1 0
vn 0.99450 0.10475 0.00096
vn 0 -0.15092 -0.98855
vn 0 -1 0
vn -0.99452 -0.10458 -0.00001
vn 0 0.17640 0.98432
vn 0.99450 0.10475 0.00096
vn -0.01321 0.17659 0.98420
vn 0 -1 0
vn 0.00033 1 0
vn 0.00016 0.40036 -0.91636
vn 0.94611 -0.32383 0.00027
vn 0.00033 1 0
vn -0.01226 -0.45687 0.88945
vn -0.94613 0.32378 0
vn 0.00198 -0.46102 0.88739
vn 0.94611 -0.32383 0.00027
vn 0 1 0
vn 0 -1 0
vn -0.99449 0.10480 0.00134
vn 0 -0.15098 -0.98854
vn 0 -1 0
vn 0.99452 -0.10451 0.00001
vn 0 0.17636 0.98433
vn -0.99449 0.10480 0.00134
vn 0.01373 0.17676 0.98416
vn 0 -1 0
vn 0.00034 1 0
vn -0.94777 -0.31896 -0.00009
vn 0.00017 0.40271 -0.91533
vn 0.00034 1 0
vn 0.01335 -0.43743 0.89915
vn 0.94770 0.31916 0
vn -0.00235 -0.45764 0.88914
vn -0.94777 -0.31896 -0.00009
vn -0.00099 1 0
vn 0 -1 0
vn 0.99600 0.08932 -0.00180
vn 0 -0.15098 -0.98854
vn 0 -1 0
vn 0.99600 0.08932 -0.00180
vn 0.01373 0.17676 0.98416
vn 0 -1 0
vn 0 0.17664 -0.98428
vn -0.99253 0.12198 0
vn -0.99253 0.12198 0
vn 0.00291 0.17628 -0.98434
vn 0 1 0
vn -1 0 0
vn 0 0 -1
vn 0 -1 0
vn 0 -1 0
vn -0.99253 0.12198 0
vn 0 0.17636 0.98433
vn 0 1 0
vn -1 0 0
vn 0 0 1
vn -0.00099 1 0
vn 1 0 0
vn -0.93074 -0.36568 0.00046
vn -0.93059 -0.36606 0
vn 0.00325 -0.45569 -0.89013
vn 0 -1 0
vn -1 0 0
vn 0 -0.00018 -1
vn 0.00007 1 0
vn -0.00099 1 0
vn -0.93059 -0.36606 0
vn -0.00235 -0.45764 0.88914
vn 0 -1 0
vn -1 0 0
vn 0 0.00012 1
vn 0 -1 0
vn 0.99452 -0.10451 0.00001
vn 0.00291 0.17628 -0.98434
vn -0.00099 1 0
vn 0.94770 0.31916 0
vn 0.00325 -0.45569 -0.89013
vn 0 -1 0
vn -0.99452 -0.10458 -0.00001
vn -0.00212 0.17637 -0.98432
vn 0 1 0
vn -0.94613 0.32378 0
vn -0.00198 -0.45959 -0.88813
vn 0 -1 0
vn 0 0.17664 -0.98428
vn 0.99253 0.12198 0
vn 0.99253 0.12198 0
vn -0.00212 0.17637 -0.98432
vn 0 1 0
vn 1 0 0
vn 0 0 -1
vn 0 -1 0
vn 0 -1 0
vn 0.99253 0.12198 0
vn 0 0.17640 0.98432
vn 0 1 0
vn 1 0 0
vn 0 0 1
vn 0 1 0
vn 1 0 0
vn 0.93038 -0.36659 -0.00019
vn 0.93043 -0.36647 0
vn -0.00198 -0.45959 -0.88813
vn 0 -1 0
vn 1 0 0
vn 0 -0.00018 -1
vn 0.00007 1 0
vn 0 1 0
vn 0.93043 -0.36647 0
vn 0.00198 -0.46102 0.88739
vn 0 -1 0
vn 1 0 0
vn 0 0.00012 1
vn 0 -1 0
vn 0 -0.15208 0.98837
vn -0.99253 0.12198 0
vn 0.00007 1 0
vn 0.00002 0.40219 0.91556
vn -0.93074 -0.36568 0.00046
vn 0 -1 0
vn 0.99253 0.12198 0
vn 0 -0.15208 0.98837
vn 0.00007 1 0
vn 0.00002 0.40219 0.91556
vn 0.93038 -0.36659 -0.00019
vn 0 -0.00018 -1
vn 0 1 0
vn -1 0 0
vn 0 0.00012 1
vn 0 1 0
vn -1 0 0
vn 0 -0.00018 -1
vn 0 1 0
vn 1 0 0
vn 0 0.00012 1
vn 0 1 0
vn 1 0 0
vn 0 0 -1
vn 0 -1 0
vn -1 0 0
vn 0 0 1
vn 0 -1 0
vn -1 0 0
vn 0 0 -1
vn 0 -1 0
vn 1 0 0
vn 0 0 1
vn 0 -1 0
vn 1 0 0
vn 0.00013 0.20362 -0.97905
vn 0.97218 -0.23422 0
vn 0.00013 0.20362 -0.97905
vn -0.99131 -0.13154 0.00001
vn -0.99131 -0.13154 0.00001
vn 0.01335 -0.43743 0.89915
vn 0.99130 0.13164 0
vn -0.00260 -0.23536 0.97191
vn 0.00323 -0.23658 -0.97161
vn 0.99130 0.13164 0
vn 0.00323 -0.23658 -0.97161
vn 1 0 0
vn -0.98873 -0.14973 0.00029
vn -0.98870 -0.14993 0
vn -0.00260 -0.23536 0.97191
vn -0.98870 -0.14993 0
vn -0.98873 -0.14973 0.00029
vn 0.00002 0.40219 0.91556
vn 0.94611 -0.32383 0.00027
vn 0 1 0
vn -0.00004 0 1
vn 0.00016 0.40036 -0.91636
vn 0.94611 -0.32383 0.00027
vn 0 -1 0
vn -0.00177 0.00013 -0.999998
vn 0 1 0
vn 0.01714 -0.00171 -0.999852
vn 1 0 0
vn -0.01226 -0.45687 0.88945
vn -0.94613 0.32378 0
vn 0.00198 -0.46102 0.88739
vn -0.00198 -0.45959 -0.88813
vn 1 0 0
vn 1 0 0
vn 1 0 0
vn 1 0 0
vn 0.93038 -0.36659 -0.00019
vn 0.93043 -0.36647 0
vn -0.00198 -0.45959 -0.88813
vn 0 -1 0
vn 0.00212 -0.00572 0.999981
vn 1 0 0
vn -0.94613 0.32378 0
vn 0.00198 -0.46102 0.88739
vn 1 0 0
vn 1 0 0
vn 0.93043 -0.36647 0
vn 0.93038 -0.36659 -0.00019
vn -0.99740 0.07205 0.00011
vn 0.00002 0.40219 0.91556
vn 1 0 0
vn -0.97151 -0.23699 0
vn -0.00004 0 1
vn 0.99504 -0.09951 0
vn 0.00016 0.40036 -0.91636
vn -0.97151 -0.23699 0
vn 0.01714 -0.00171 -0.999852
vn 0.99504 -0.09951 0
vn -0.01226 -0.45687 0.88945
vn 1 0 0
vn 1 0 0
vn -0.99740 0.07205 0.00011
vn -0.99740 0.07202 0
vn 0.00212 -0.00572 0.999981
vn 1 0 0
vn 1 0 0
vn 1 0 0
vn -0.99740 0.07202 0
vn -0.00177 0.00013 -0.999998
vn 1 0 0
vn 0.01599 0.08539 0.99622
vn 0.99878 0.04693 0.01504
vn 0.00001 -0.07582 -0.99712
vn -0.99833 0.05780 0.00121
vn 0.00001 -0.07582 -0.99712
vn 0.99878 0.04693 0.01504
vn 0.01599 0.08539 0.99622
vn 0.99834 -0.05755 0.00002
vn -0.00032 0.08841 0.99608
vn -0.99833 0.05780 0.00121
vn 0.00291 0.08849 -0.99607
vn 0 0.08868 -0.99606
vn -0.99774 0.06722 0
vn -0.99774 0.06722 0
vn 0.00291 0.08849 -0.99607
vn 0.99834 -0.05755 0.00002
vn -0.00032 0.08841 0.99608
vn -0.99774 0.06722 0
vn -0.99774 0.06722 0
vn 0 -0.07627 0.99709
vn 0 -0.07627 0.99709
vn 0.99774 0.06721 0
vn -0.999077 0.04294 -0.00021
vn -0.01504 0.08857 0.99596
vn -0.999077 0.04294 -0.00021
vn 0.00002 -0.07571 -0.99713
vn 0.00002 -0.07571 -0.99713
vn 0.99835 0.05737 0.00097
vn -0.01504 0.08857 0.99596
vn -0.99836 -0.05725 -0.00001
vn 0.00022 0.08848 0.99608
vn 0.99835 0.05737 0.00097
vn -0.00210 0.08853 -0.99607
vn -0.99836 -0.05725 -0.00001
vn -0.00210 0.08853 -0.99607
vn 0 0.08868 -0.99606
vn 0.99774 0.06721 0
vn 0.99774 0.06721 0
vn 0.00022 0.08848 0.99608
vn 0.99774 0.06721 0
vn 0.97218 -0.23422 0
vn -0.99738 0.06233 0.03683
vn 0.00008 -0.00436 -0.999991
vn 0.97218 -0.23422 0
vn -0.99738 0.06233 0.03683
vn 0.01335 -0.43743 0.89915
vn -0.999361 0.03573 0.00060
vn 0.00005 -0.00229 -0.999997
vn -0.999361 0.03573 0.00060
vn 0.01613 -0.22771 0.97360
vn 0.999365 -0.03562 0.00001
vn -0.00167 -0.00004 0.999999
vn 0.00296 -0.00227 -0.999993
vn 0.999365 -0.03562 0.00001
vn 0.00296 -0.00227 -0.999993
vn 1 0 0
vn 0 0.00002 -1
vn -0.999075 0.04300 0.00006
vn -0.999075 0.04300 0
vn -0.00167 -0.00004 0.999999
vn -0.999075 0.04300 0
vn -0.999075 0.04300 0.00006
vn 0.00001 0.20547 0.97866
vn 0.00001 0.20547 0.97866
vn -0.99740 0.07205 0.00011
vn 0.999925 0.01223 0
vn -0.999986 -0.00531 -0.00023
vn -0.00004 0 1
vn 0.00004 -0.00008 -1
vn 0.99504 -0.09951 0
vn -0.999986 -0.00531 -0.00023
vn 0.01714 -0.00171 -0.999852
vn -0.01675 -0.00015 0.99986
vn 0.99504 -0.09951 0
vn 0.00004 -0.00008 -1
vn 0 1 0
vn 0.999951 0.00987 0.00098
vn -0.00004 0 1
vn -0.01675 -0.00015 0.99986
vn 0 -1 0
vn -0.999952 -0.00980 -0.00002
vn -0.00177 0.00013 -0.999998
vn 0.00044 -0.00013 1
vn 0 1 0
vn 0.999951 0.00987 0.00098
vn 0.01714 -0.00171 -0.999852
vn -0.00208 0 -0.999998
vn 1 0 0
vn 0 0.00002 -1
vn -0.99740 0.07205 0.00011
vn 0.999925 0.01223 0
vn -0.99740 0.07202 0
vn 0.999925 0.01223 0
vn 0.00212 -0.00572 0.999981
vn -0.00208 0 -0.999998
vn 0 -1 0
vn -0.999952 -0.00980 -0.00002
vn 0.00212 -0.00572 0.999981
vn 0.00044 -0.00013 1
vn -0.99740 0.07202 0
vn 0.999925 0.01223 0
vn -0.00177 0.00013 -0.999998
vn 0.00005 -0.00229 -0.999997
vn 0.999483 0.00445 0.03184
vn -0.99738 0.06233 0.03683
vn 0.01613 -0.22771 0.97360
vn 0.999483 0.00445 0.03184
vn -0.99738 0.06233 0.03683

# No. texture coordinates 200:
vt 0 0
vt 0 0
vt 0 1
vt 0 1
vt 1 0
vt 1 0
vt 1 1
vt 1 1
vt 0 0
vt 0 0
vt 0 1
vt 0 1
vt 1 0
vt 1 0
vt 1 1
vt 1 1
vt 0 0
vt 0 0
vt 0 1
vt 0 1
vt 1 0
vt 1 0
vt 1 1
vt 1 1
vt 0 0
vt 0 0
vt 0 1
vt 0 1
vt 1 0
vt 1 0
vt 1 1
vt 1 1
vt 0 0
vt 0 0
vt 0 1
vt 0 1
vt 1 0
vt 1 0
vt 1 1
vt 1 1
vt 0 0
vt 0 0
vt 0 1
vt 0 1
vt 1 0
vt 1 0
vt 1 1
vt 1 1
vt 0 0
vt 0 0
vt 0 1
vt 0 1
vt 1 0
vt 1 0
vt 1 1
vt 1 1
vt 0 0
vt 0 0
vt 0 1
vt 0 1
vt 1 0
vt 1 0
vt 1 1
vt 1 1
vt 1 0.85071
vt 0 0.84979
vt 0 0.84983
vt 0 0.84979
vt 0 0.84983
vt 1 0.85071
vt 1 0.84983
vt 0 0.84958
vt 0 0.84958
vt 1 0.84983
vt 0 0.84958
vt 0 0.84958
vt 1 0.84983
vt 1 0.84983
vt 0 0.84958
vt 0 0.84954
vt 0 0.84958
vt 0 0.84954
vt 1 0.85001
vt 1 0.84999
vt 1 0.84999
vt 1 0.85001
vt 1 0.84976
vt 0 0.84999
vt 0 0.84999
vt 1 0.84976
vt 0 0.84999
vt 0 0.84999
vt 1 0.84976
vt 1 0.84976
vt 1 0.84974
vt 1 0.84976
vt 1 0.84976
vt 1 0.84974
vt 0 0.84783
vt 0 0.84783
vt 0 0.84783
vt 1 0.84931
vt 1 0.84929
vt 0 0.84783
vt 1 0.84931
vt 1 0.84929
vt 0 0.84930
vt 1 0.84976
vt 1 0.84976
vt 0 0.84929
vt 0 0.84929
vt 0 0.84930
vt 1 0.84976
vt 1 0.84976
vt 1 0.84976
vt 1 0.84976
vt 0 0.21896
vt 1 0.21898
vt 1 0.22140
vt 0 0.21897
vt 0 0.21897
vt 0 0.21896
vt 1 0.21898
vt 1 0.22140
vt 0 0.21898
vt 1 0.21897
vt 1 0.21897
vt 0 0.21898
vt 0 0.21898
vt 0 0.21898
vt 1 0.21897
vt 1 0.21897
vt 0 0.21897
vt 0 0.21898
vt 1 0.21898
vt 0 0.21897
vt 0 0.21849
vt 0 0.21850
vt 0 0.21850
vt 1 0.21852
vt 1 0.21851
vt 0 0.21849
vt 1 0.21852
vt 1 0.21851
vt 0 0.21852
vt 1 0.21898
vt 1 0.21898
vt 0 0.21851
vt 0 0.21851
vt 0 0.21852
vt 1 0.21898
vt 1 0.21898
vt 1 0.21898
vt 1 0.21898
vt 0 0.21898
vt 1 0.21898
vt 1 0.83370
vt 1 0.84583
vt 1 0.84583
vt 1 0.83370
vt 0 0.83352
vt 0 0.83356
vt 1 0.83356
vt 0 0.83332
vt 0 0.83332
vt 1 0.83356
vt 0 0.83332
vt 0 0.83332
vt 1 0.83356
vt 1 0.83356
vt 0 0.83332
vt 0 0.83328
vt 0 0.83328
vt 1 0.83718
vt 0 0.83423
vt 0 0.83423
vt 1 0.83515
vt 0 0.83423
vt 0 0.83423
vt 1 0.83513
vt 1 0.83513
vt 1 0.83515
vt 1 0.83720
vt 0 0.83513
vt 0 0.83513
vt 1 0.83720
vt 0 0.83513
vt 0 0.83513
vt 1 0.83720
vt 1 0.83720
vt 1 0.83718
vt 1 0.83720
vt 1 0.83720
vt 0 0.83332
vt 0 0.83352
vt 1 0.82052
vt 1 0.83189
vt 0 0.83356
vt 1 0.82052
vt 1 0.83189

# No. faces 109:
f 3/3/116 7/7/134 5/5/128 1/1/110
f 6/6/131 8/8/140 4/4/122 2/2/113
f 2/2/115 4/4/127 3/3/121 1/1/112
f 7/7/139 8/8/145 6/6/133 5/5/130
f 4/4/126 8/8/144 7/7/138 3/3/120
f 5/5/129 6/6/132 2/2/114 1/1/111
f 8/12/143 14/16/164 13/15/161 7/11/137
f 11/13/152 12/14/155 10/10/149 9/9/146
f 18/20/182 4/24/125 3/23/119 17/19/179
f 19/21/188 20/22/191 16/18/173 15/17/170
f 24/28/218 18/32/187 26/31/227 23/27/209
f 25/29/224 16/30/178 22/26/203 21/25/194
f 14/36/169 32/40/260 31/39/251 28/35/233
f 29/37/236 30/38/245 12/34/160 27/33/230
f 34/44/269 36/48/275 31/47/259 23/43/217
f 29/45/244 35/46/272 33/42/266 21/41/202
f 37/51/278 39/55/284 31/53/258 23/49/216
f 32/54/265 40/56/287 38/52/281 24/50/223
f 24/50/222 38/52/283 37/51/280 23/49/215
f 39/55/286 40/56/289 32/54/264 31/53/257
f 38/52/282 40/56/288 39/55/285 37/51/279
f 31/53/256 32/54/263 24/50/221 23/49/214
f 21/59/201 29/63/243 43/61/296 41/57/290
f 44/62/299 30/64/250 22/60/208 42/58/293
f 42/58/295 22/60/207 21/59/200 41/57/292
f 29/63/242 30/64/249 44/62/301 43/61/298
f 22/60/206 30/64/248 29/63/241 21/59/199
f 43/61/297 44/62/300 42/58/294 41/57/291
f 46/66/304 17/19/181 3/23/118 45/65/302
f 47/69/306 18/20/186 17/19/180 46/68/305
f 49/72/312 23/27/213 26/31/229 48/71/310
f 47/74/309 18/32/185 24/28/220 50/73/316
f 50/76/317 24/28/219 23/27/212 49/75/315
f 48/78/311 26/31/228 18/32/184 47/77/308
f 51/82/318 34/44/271 23/43/211 49/81/314
f 52/86/320 13/15/163 14/16/168 53/85/324
f 55/88/340 28/35/235 31/39/255 54/87/333
f 56/90/345 32/40/262 14/36/167 53/89/332
f 53/92/331 14/36/166 28/35/234 55/91/344
f 54/94/339 31/39/254 32/40/261 56/93/348
f 54/96/338 31/47/253 36/48/277 57/95/349
f 59/100/357 8/12/142 7/11/136 58/99/353
f 58/11/356 7/15/135 13/83/162 52/102/323
f 53/84/330 14/16/165 8/12/141 59/104/360
f 55/88/343 54/87/337 60/108/361
f 61/90/368 56/89/347 53/110/329
f 60/113/367 54/94/336 56/93/346 61/114/371
f 60/115/366 54/96/335 57/95/352
f 64/118/376 19/21/190 15/17/172 63/117/374
f 65/120/378 16/18/177 20/22/193 62/119/372
f 63/122/375 15/17/171 16/18/176 65/121/381
f 62/124/373 20/22/192 19/21/189 64/123/377
f 67/126/386 25/29/226 21/25/198 66/125/382
f 68/128/388 22/26/205 16/30/175 65/127/380
f 66/130/385 21/25/197 22/26/204 68/129/389
f 65/132/379 16/30/174 25/29/225 67/131/387
f 66/134/384 21/41/196 33/42/268 69/133/390
f 69/136/391 33/42/267 35/46/274 70/135/392
f 72/138/396 9/9/148 10/10/151 71/137/394
f 73/140/398 11/13/154 9/9/147 72/139/397
f 71/142/395 10/10/150 12/14/159 74/141/400
f 74/144/403 12/14/158 11/13/153 73/143/399
f 76/146/406 29/37/240 27/33/232 75/145/404
f 74/148/402 12/34/157 30/38/247 77/147/410
f 75/150/405 27/33/231 12/34/156 74/149/401
f 77/152/411 30/38/246 29/37/239 76/151/409
f 70/154/393 35/46/273 29/45/238 76/153/408
f 76/156/407 29/45/237 21/41/195 66/155/383
f 78/160/412 45/70/303 3/23/117 4/24/124 79/159/415
f 80/161/418 63/122/375 65/121/381 81/162/420
f 81/162/420 47/69/306 46/68/305 80/161/418
f 82/163/424 67/126/386 66/125/382 83/164/426
f 83/164/426 49/72/312 48/71/310 82/163/424
f 84/165/431 68/128/388 65/127/380 81/166/423
f 81/166/423 47/74/309 50/73/316 84/165/431
f 83/167/430 66/130/385 68/129/389 84/168/432
f 84/168/432 50/76/317 49/75/315 83/167/430
f 81/169/422 65/132/379 67/131/387 82/170/425
f 82/170/425 48/78/311 47/77/308 81/169/422
f 83/171/429 66/134/384 69/133/390 85/172/433
f 85/172/433 51/82/318 49/81/314 83/171/429
f 85/173/434 69/136/391 70/135/392 86/174/435
f 86/174/435 57/98/351 36/48/276 34/44/270 51/80/319 85/173/434
f 87/175/438 72/138/396 71/137/394 88/176/442
f 88/176/445 59/100/359 58/99/355 87/175/441
f 89/177/446 73/140/398 72/139/397 87/178/440
f 87/178/439 58/101/354 52/102/322 89/177/449
f 88/179/444 71/142/395 74/141/400 90/180/450
f 90/180/457 53/103/328 59/104/358 88/179/443
f 90/181/456 74/144/403 73/143/399 89/182/448
f 89/182/447 52/105/321 53/106/327 90/181/455
f 91/183/458 76/146/406 75/145/404 92/184/466
f 92/184/469 55/107/342 60/108/365 91/183/465
f 90/185/454 74/148/402 77/147/410 93/186/470
f 93/186/473 61/109/370 53/110/326 90/185/453
f 92/187/468 75/150/405 74/149/401 90/188/452
f 90/188/451 53/111/325 55/112/341 92/187/467
f 93/189/472 77/152/411 76/151/409 91/190/464
f 91/190/463 60/113/364 61/114/369 93/189/471
f 86/191/437 70/154/393 76/153/408 91/192/462
f 91/192/461 60/115/363 57/95/350 86/191/436
f 91/193/460 76/156/407 66/155/383 83/194/428
f 83/194/427 49/79/313 23/43/210 31/47/252 54/97/334 60/116/362 91/193/459
f 80/195/419 46/66/304 45/65/302 78/157/414 94/196/474
f 94/196/474 64/118/376 63/117/374 80/195/419
f 95/197/477 79/158/417 4/24/123 18/20/183 47/67/307 81/198/421
f 81/198/421 65/120/378 62/119/372 95/197/477
f 94/199/476 78/160/413 79/159/416 95/200/479
f 95/200/478 62/124/373 64/123/377 94/199/475


# ComRec:
g rightCC
# No. points 8:
v 6 4.5 -3.5
v 6 4.5 3.5
v 6 11.5 -3.5
v 6 11.5 3.5
v 8 4.5 -3.5
v 8 4.5 3.5
v 8 11.5 -3.5
v 8 11.5 3.5

# No. normals 30:
vn 0 0 -1
vn 0 0 1
vn -1 0 0
vn 1 0 0
vn 0 1 0
vn 0 -1 0
vn 0 0 -1
vn 0 -1 0
vn -1 0 0
vn 0 0 1
vn 0 -1 0
vn -1 0 0
vn 0 0 -1
vn 0 1 0
vn -1 0 0
vn 0 0 1
vn 0 1 0
vn -1 0 0
vn 0 0 -1
vn 0 -1 0
vn 1 0 0
vn 0 0 1
vn 0 -1 0
vn 1 0 0
vn 0 0 -1
vn 0 1 0
vn 1 0 0
vn 0 0 1
vn 0 1 0
vn 1 0 0

# No. texture coordinates 8:
vt 0 0
vt 0 0
vt 0 1
vt 0 1
vt 1 0
vt 1 0
vt 1 1
vt 1 1

# No. faces 6:
f 98/203/492 102/207/504 100/205/498 96/201/486
f 101/206/501 103/208/507 99/204/495 97/202/489
f 97/202/491 99/204/497 98/203/494 96/201/488
f 102/207/506 103/208/509 101/206/503 100/205/500
f 99/204/496 103/208/508 102/207/505 98/203/493
f 100/205/499 101/206/502 97/202/490 96/201/487


# ComRec:
g leftCC
# No. points 8:
v -8 4.5 -3.5
v -8 4.5 3.5
v -8 11.5 -3.5
v -8 11.5 3.5
v -6 4.5 -3.5
v -6 4.5 3.5
v -6 11.5 -3.5
v -6 11.5 3.5

# No. normals 30:
vn 0 0 -1
vn 0 0 1
vn -1 0 0
vn 1 0 0
vn 0 1 0
vn 0 -1 0
vn 0 0 -1
vn 0 -1 0
vn -1 0 0
vn 0 0 1
vn 0 -1 0
vn -1 0 0
vn 0 0 -1
vn 0 1 0
vn -1 0 0
vn 0 0 1
vn 0 1 0
vn -1 0 0
vn 0 0 -1
vn 0 -1 0
vn 1 0 0
vn 0 0 1
vn 0 -1 0
vn 1 0 0
vn 0 0 -1
vn 0 1 0
vn 1 0 0
vn 0 0 1
vn 0 1 0
vn 1 0 0

# No. texture coordinates 8:
vt 0 0
vt 0 0
vt 0 1
vt 0 1
vt 1 0
vt 1 0
vt 1 1
vt 1 1

# No. faces 6:
f 106/211/522 110/215/534 108/213/528 104/209/516
f 109/214/531 111/216/537 107/212/525 105/210/519
f 105/210/521 107/212/527 106/211/524 104/209/518
f 110/215/536 111/216/539 109/214/533 108/213/530
f 107/212/526 111/216/538 110/215/535 106/211/523
f 108/213/529 109/214/532 105/210/520 104/209/517


# ComRec:
g cube01
# No. points 8:
v -3.5 4.5 -8
v -3.5 4.5 -6
v -3.5 11.5 -8
v -3.5 11.5 -6
v 3.5 4.5 -8
v 3.5 4.5 -6
v 3.5 11.5 -8
v 3.5 11.5 -6

# No. normals 30:
vn 0 0 -1
vn 0 0 1
vn -1 0 0
vn 1 0 0
vn 0 1 0
vn 0 -1 0
vn 0 0 -1
vn 0 -1 0
vn -1 0 0
vn 0 0 1
vn 0 -1 0
vn -1 0 0
vn 0 0 -1
vn 0 1 0
vn -1 0 0
vn 0 0 1
vn 0 1 0
vn -1 0 0
vn 0 0 -1
vn 0 -1 0
vn 1 0 0
vn 0 0 1
vn 0 -1 0
vn 1 0 0
vn 0 0 -1
vn 0 1 0
vn 1 0 0
vn 0 0 1
vn 0 1 0
vn 1 0 0

# No. texture coordinates 8:
vt 0 0
vt 0 0
vt 0 1
vt 0 1
vt 1 0
vt 1 0
vt 1 1
vt 1 1

# No. faces 6:
f 114/219/552 118/223/564 116/221/558 112/217/546
f 117/222/561 119/224/567 115/220/555 113/218/549
f 113/218/551 115/220/557 114/219/554 112/217/548
f 118/223/566 119/224/569 117/222/563 116/221/560
f 115/220/556 119/224/568 118/223/565 114/219/553
f 116/221/559 117/222/562 113/218/550 112/217/547


